<?xml version="1.0" encoding="utf-8"?>
<!-- Generator: Adobe Illustrator 26.2.1, SVG Export Plug-In . SVG Version: 6.00 Build 0)  -->
<svg version="1.1" id="Layer_1" xmlns="http://www.w3.org/2000/svg" xmlns:xlink="http://www.w3.org/1999/xlink" x="0px" y="0px"
	 viewBox="0 0 539.5 260.2" style="enable-background:new 0 0 539.5 260.2;" xml:space="preserve">
<style type="text/css">
	.st0{fill:#006262;}
	.st1{fill:#FEBF00;}
	.st2{fill:none;stroke:#000000;stroke-width:1.8568;stroke-miterlimit:10;}
	.st3{fill:#FE5800;}
	.st4{fill:#FFFFFF;}
	.st5{fill:#FF8EED;}
	.st6{fill:#00A2FD;}
</style>
<g>
	<g>
		<path d="M25.9,241.9H10.1v10h18.7v7.7H0v-41.7h28.8v7.8H10.1v8.8h15.8V241.9z"/>
		<path d="M46,217.9l9.3,29l9.3-29h13.2v41.7H67.8v-9.7l1-19.9l-10.1,29.7H52l-10.1-29.7l1,20v9.7H32.8v-41.7H46z"/>
		<path d="M119.6,239.6c0,4.1-0.8,7.7-2.3,10.8c-1.5,3.1-3.7,5.5-6.4,7.2c-2.8,1.7-5.9,2.5-9.5,2.5c-3.6,0-6.7-0.8-9.5-2.5
			c-2.8-1.6-4.9-4-6.4-7c-1.5-3-2.3-6.5-2.4-10.5v-2.3c0-4.1,0.7-7.7,2.2-10.8c1.5-3.1,3.6-5.5,6.4-7.2c2.8-1.7,6-2.5,9.6-2.5
			c3.5,0,6.7,0.8,9.5,2.5c2.8,1.7,4.9,4.1,6.5,7.2s2.3,6.7,2.3,10.7V239.6z M109.4,237.9c0-4.1-0.7-7.3-2.1-9.4s-3.4-3.2-5.9-3.2
			c-5,0-7.7,3.8-8,11.3l0,3.1c0,4.1,0.7,7.2,2,9.4c1.4,2.2,3.4,3.3,6,3.3c2.5,0,4.5-1.1,5.9-3.2c1.4-2.2,2.1-5.3,2.1-9.3V237.9z"/>
		<path d="M155.1,225.6h-12.5v33.9h-10.1v-33.9h-12.3v-7.8h34.9V225.6z"/>
		<path d="M170,259.6h-10v-41.7h10V259.6z"/>
		<path d="M212.3,239.6c0,4.1-0.8,7.7-2.3,10.8c-1.5,3.1-3.7,5.5-6.4,7.2c-2.8,1.7-5.9,2.5-9.5,2.5c-3.6,0-6.7-0.8-9.5-2.5
			c-2.8-1.6-4.9-4-6.4-7c-1.5-3-2.3-6.5-2.4-10.5v-2.3c0-4.1,0.7-7.7,2.2-10.8c1.5-3.1,3.6-5.5,6.4-7.2c2.8-1.7,6-2.5,9.6-2.5
			c3.5,0,6.7,0.8,9.5,2.5c2.8,1.7,4.9,4.1,6.5,7.2s2.3,6.7,2.3,10.7V239.6z M202.1,237.9c0-4.1-0.7-7.3-2.1-9.4s-3.4-3.2-5.9-3.2
			c-5,0-7.7,3.8-8,11.3l0,3.1c0,4.1,0.7,7.2,2,9.4c1.4,2.2,3.4,3.3,6,3.3c2.5,0,4.5-1.1,5.9-3.2c1.4-2.2,2.1-5.3,2.1-9.3V237.9z"/>
		<path d="M252.4,259.6h-10l-14.8-26v26h-10.1v-41.7h10.1l14.8,26v-26h10V259.6z"/>
		<path class="st0" d="M301.6,220.9h-14.3v38.7h-3.5v-38.7h-14.3v-3h32.1V220.9z"/>
		<path class="st0" d="M333.2,231.5c-0.7-0.1-1.5-0.2-2.3-0.2c-2.1,0-3.9,0.6-5.4,1.8c-1.5,1.2-2.5,2.9-3.2,5.2v21.3h-3.4v-31h3.4
			l0.1,4.9c1.8-3.7,4.7-5.5,8.7-5.5c1,0,1.7,0.1,2.3,0.4L333.2,231.5z"/>
		<path class="st0" d="M370.5,259.6c-0.3-1-0.6-2.4-0.7-4.3c-1.2,1.6-2.7,2.8-4.6,3.6s-3.8,1.3-5.9,1.3c-3,0-5.4-0.8-7.2-2.5
			c-1.8-1.7-2.8-3.8-2.8-6.3c0-3,1.3-5.4,3.8-7.2c2.5-1.8,6-2.6,10.5-2.6h6.2v-3.5c0-2.2-0.7-4-2-5.2c-1.4-1.3-3.4-1.9-6-1.9
			c-2.4,0-4.4,0.6-5.9,1.8c-1.6,1.2-2.3,2.7-2.3,4.4l-3.4,0c0-2.5,1.1-4.6,3.4-6.4c2.3-1.8,5.1-2.7,8.5-2.7c3.5,0,6.2,0.9,8.2,2.6
			c2,1.7,3,4.1,3.1,7.2v14.7c0,3,0.3,5.2,0.9,6.7v0.3H370.5z M359.8,257.1c2.3,0,4.3-0.6,6.1-1.7c1.8-1.1,3.1-2.6,3.9-4.4v-6.8h-6.1
			c-3.4,0-6.1,0.7-8,1.9c-1.9,1.2-2.9,2.9-2.9,5c0,1.7,0.6,3.2,1.9,4.3C356,256.6,357.7,257.1,359.8,257.1z"/>
		<path class="st0" d="M407.3,257.3c2.4,0,4.4-0.7,6-2c1.6-1.3,2.5-3.1,2.6-5.2h3.3c-0.1,1.9-0.7,3.6-1.8,5.2
			c-1.1,1.6-2.5,2.8-4.3,3.7c-1.8,0.9-3.7,1.3-5.8,1.3c-4.1,0-7.3-1.4-9.7-4.2c-2.4-2.8-3.6-6.6-3.6-11.4v-1c0-3.1,0.5-5.8,1.6-8.1
			c1.1-2.3,2.6-4.2,4.6-5.4c2-1.3,4.3-1.9,7-1.9c3.4,0,6.2,1,8.4,3s3.4,4.7,3.5,8H416c-0.2-2.4-1-4.4-2.6-5.9
			c-1.6-1.5-3.6-2.2-6-2.2c-3.1,0-5.5,1.1-7.2,3.4c-1.7,2.2-2.6,5.4-2.6,9.4v1c0,4,0.9,7,2.6,9.3
			C401.8,256.2,404.2,257.3,407.3,257.3z"/>
		<path class="st0" d="M447,244l-3.9,3.8v11.8h-3.4v-44h3.4v28.2l3.2-3.5l11.9-11.7h4.3l-13.2,13.1l14.3,17.9h-4.1L447,244z"/>
		<path class="st0" d="M493.3,260.2c-2.6,0-5-0.6-7.1-1.9c-2.1-1.3-3.8-3.1-5-5.4c-1.2-2.3-1.8-4.9-1.8-7.8v-1.2
			c0-3,0.6-5.7,1.7-8.1c1.2-2.4,2.8-4.3,4.8-5.6s4.3-2,6.7-2c3.8,0,6.7,1.3,9,3.9c2.2,2.6,3.3,6.1,3.3,10.5v1.9h-22.1v0.7
			c0,3.5,1,6.4,3,8.8c2,2.3,4.6,3.5,7.6,3.5c1.8,0,3.5-0.3,4.9-1c1.4-0.7,2.7-1.7,3.8-3.2l2.1,1.6
			C501.7,258.3,498.1,260.2,493.3,260.2z M492.6,230.9c-2.6,0-4.8,0.9-6.5,2.8c-1.8,1.9-2.8,4.4-3.2,7.6h18.6V241
			c-0.1-3-0.9-5.4-2.6-7.3C497.3,231.9,495.2,230.9,492.6,230.9z"/>
		<path class="st0" d="M539.4,231.5c-0.7-0.1-1.5-0.2-2.3-0.2c-2.1,0-3.9,0.6-5.4,1.8c-1.5,1.2-2.5,2.9-3.2,5.2v21.3h-3.4v-31h3.4
			l0.1,4.9c1.8-3.7,4.7-5.5,8.7-5.5c1,0,1.7,0.1,2.3,0.4L539.4,231.5z"/>
	</g>
	<g>
		<g>
			<circle class="st1" cx="250.5" cy="49.5" r="49.5"/>
			<path class="st2" d="M222.1,90.1"/>
			<path class="st2" d="M291.1,77.9"/>
			<g>
				<g>
					<path d="M260,60.8c-5.1,0-10.1-1.6-14.3-4.5c-10.2-7.1-13.6-20.8-7.9-31.8c0.4-0.8,1.3-1.3,2.2-1.3c0.5,0,1,0.2,1.4,0.4
						L278,49.1c0.6,0.4,1,1.1,1,1.8c0.1,0.7-0.2,1.4-0.6,1.9C273.7,57.9,267,60.8,260,60.8C260,60.8,260,60.8,260,60.8z"/>
				</g>
				<path class="st3" d="M253.2,45.8c-6.1-4.3-12.5-7.3-18.6-9.2c0.2,7.8,4,15.5,10.9,20.3c6.9,4.8,15.4,5.8,22.8,3.3
					C264.3,54.9,259.2,50,253.2,45.8z"/>
				<g>
					<path d="M257,20.6c-0.6-0.4-0.7-1.2-0.3-1.8c1.6-2.3,1.1-5.5-1.3-7.2s-5.5-1.1-7.2,1.3c-0.4,0.6-1.2,0.7-1.8,0.3
						c-0.6-0.4-0.7-1.2-0.3-1.8c2.4-3.5,7.2-4.3,10.7-1.9c3.5,2.4,4.3,7.2,1.9,10.7C258.4,20.8,257.6,21,257,20.6z"/>
				</g>
				<g>
					<path d="M286,40.8c-0.6-0.4-0.7-1.2-0.3-1.8c1.6-2.3,1.1-5.5-1.3-7.2c-2.3-1.6-5.5-1.1-7.2,1.3c-0.4,0.6-1.2,0.7-1.8,0.3
						s-0.7-1.2-0.3-1.8c2.4-3.5,7.2-4.3,10.7-1.9s4.3,7.2,1.9,10.7C287.4,41.1,286.6,41.2,286,40.8z"/>
				</g>
				<path class="st4" d="M278.3,48.6l-36.5-25.5c-1.5-1.1-3.7-0.6-4.5,1.1c-0.6,1.2-1.1,2.3-1.5,3.5L276,55.9c1-0.8,1.9-1.6,2.8-2.6
					C280.1,51.9,279.8,49.7,278.3,48.6z"/>
			</g>
		</g>
		<g>
			<polygon class="st5" points="283,191.2 166.7,191.2 224.9,91.6 			"/>
			<g>
				
					<ellipse transform="matrix(0.7071 -0.7071 0.7071 0.7071 -54.9227 197.9564)" class="st4" cx="211.5" cy="165.3" rx="10.2" ry="10.2"/>
				
					<ellipse transform="matrix(0.7071 -0.7071 0.7071 0.7071 -47.0946 216.8551)" class="st4" cx="238.2" cy="165.3" rx="10.2" ry="10.2"/>
				<circle cx="211.5" cy="159" r="4"/>
				<circle cx="238.2" cy="159" r="4"/>
				<g>
					<path d="M229.2,183.8h-8.6c-0.6,0-1.2-0.5-1.2-1.2c0-0.6,0.5-1.2,1.2-1.2h8.6c0.6,0,1.2,0.5,1.2,1.2
						C230.3,183.3,229.8,183.8,229.2,183.8z"/>
				</g>
			</g>
		</g>
		<g>
			
				<rect x="269.5" y="73.7" transform="matrix(0.6166 -0.7873 0.7873 0.6166 24.0471 296.5022)" class="st6" width="93.8" height="99.7"/>
			<g>
				<path d="M324.6,130.5C324.6,130.5,324.6,130.5,324.6,130.5c-2.4,3.1-3.5,7.2-3,11.4c0,0.4,0.2,0.6,0.5,0.8
					c0.3,0.2,0.6,0.2,1,0.1c0.4-0.1,0.7-0.4,0.9-0.7c0.2-0.3,0.3-0.7,0.3-1.1c-0.3-2.5-0.2-6,2.2-9c2.3-3,5.8-3.9,8.2-4.3
					c0.7-0.1,1.4-0.8,1.5-1.6c0-0.4-0.1-0.7-0.3-1c-0.2-0.2-0.5-0.3-0.9-0.3C330.7,125.3,327,127.3,324.6,130.5z"/>
				<g>
					<path d="M298.6,148.3c-0.6,0.8-1.8,0.9-2.6,0.3c-5.9-4.6-6.9-13.1-2.3-19c0.6-0.8,1.8-0.9,2.6-0.3c0.8,0.6,0.9,1.8,0.3,2.6
						c-3.3,4.3-2.6,10.5,1.7,13.8C299.1,146.4,299.2,147.5,298.6,148.3z"/>
				</g>
				<g>
					<g>
						<path d="M336,100.6c0.6-0.8,0.5-2-0.3-2.6c-5.9-4.6-14.4-3.6-19,2.3c-0.6,0.8-0.5,2,0.3,2.6s2,0.5,2.6-0.3
							c3.3-4.3,9.5-5,13.8-1.7C334.2,101.6,335.3,101.4,336,100.6z"/>
					</g>
				</g>
				<ellipse transform="matrix(0.2665 -0.9638 0.9638 0.2665 90.2591 394.5758)" cx="304.4" cy="138" rx="6.4" ry="6.4"/>
				<ellipse transform="matrix(0.2665 -0.9638 0.9638 0.2665 134.6619 395.1913)" cx="327" cy="109.1" rx="6.4" ry="6.4"/>
				<path class="st6" d="M354.2,112c-2.4-1.9-14.1-4-14.1-4s4.9,10.8,7.3,12.7c2.4,1.9,5.9,1.5,7.8-0.9
					C357,117.4,356.6,113.9,354.2,112z"/>
				<path class="st4" d="M303.4,136.2c1.2,0.9,1.4,2.6,0.5,3.8s-2.6,1.4-3.8,0.5c-1.2-0.9-1.4-2.6-0.5-3.8
					C300.5,135.5,302.2,135.3,303.4,136.2z"/>
				<path class="st4" d="M308.4,136.5c0.7,0.5,0.8,1.5,0.3,2.2c-0.5,0.7-1.5,0.8-2.2,0.3c-0.7-0.5-0.8-1.5-0.3-2.2
					C306.8,136.1,307.8,136,308.4,136.5z"/>
				<path class="st4" d="M326.3,107c1.2,0.9,1.4,2.6,0.5,3.8c-0.9,1.2-2.6,1.4-3.8,0.5c-1.2-0.9-1.4-2.6-0.5-3.8
					C323.4,106.3,325.1,106.1,326.3,107z"/>
				<path class="st4" d="M331.3,107.3c0.7,0.5,0.8,1.5,0.3,2.2s-1.5,0.8-2.2,0.3c-0.7-0.5-0.8-1.5-0.3-2.2
					C329.7,106.9,330.6,106.8,331.3,107.3z"/>
			</g>
		</g>
		<polygon points="248.3,129.8 274.8,191.2 283,191.2 		"/>
	</g>
</g>
</svg>
